<!--?xml version="1.0" encoding="utf-8"?-->
<!-- Generator: Adobe Illustrator 15.1.0, SVG Export Plug-In . SVG Version: 6.00 Build 0)  -->

<svg version="1.1" id="_x32_" xmlns="http://www.w3.org/2000/svg" xmlns:xlink="http://www.w3.org/1999/xlink" x="0px" y="0px" width="512px" height="512px" viewBox="0 0 512 512" style="width: 16px; height: 16px; opacity: 1;" xml:space="preserve">
<style type="text/css">

	.st0{fill:#4B4B4B;}

</style>
<g>
	<path class="st0" d="M244.063,272.531l67.656-124.063h-31.406l49.797-92.875c-29.422-2.844-59.844,6.953-82.391,29.5
		c-13.844,13.844-22.906,30.688-27.156,48.438c-4.25-17.75-13.313-34.594-27.156-48.438c-40-40-104.844-40-144.844,0
		c-40,39.969-40,104.844,0,144.813L67.5,248.875l153.063,153.063l153.063-153.063l18.938-18.969
		c26.594-26.594,35.469-64.156,26.703-98.109L244.063,272.531z" style="fill: rgb(0, 0, 0);"></path>
	<polygon class="st0" points="355.844,125.453 297.031,209.688 416.594,107.031 381.875,107.031 493.438,0 386.063,0 
		318.766,125.453 	" style="fill: rgb(0, 0, 0);"></polygon>
	<path class="st0" d="M125.484,420.656h-12.359c-0.938,0-1.469,0.547-1.75,1.344l-31.281,88.656c-0.281,0.813,0,1.344,0.938,1.344
		h13.031c0.938,0,1.469-0.406,1.75-1.344l6.031-17.719l1.719-5.031H134.5l1.719,5.031l6.063,17.719
		c0.281,0.938,0.797,1.344,1.75,1.344h13.156c0.938,0,1.219-0.531,0.938-1.344L127.234,422
		C126.969,421.203,126.438,420.656,125.484,420.656z M107.344,476.922l11.563-33.563h0.406l11.438,33.563H107.344z" style="fill: rgb(0, 0, 0);"></path>
	<path class="st0" d="M248.469,420.656H191.25c-0.813,0-1.344,0.547-1.344,1.344v88.656c0,0.813,0.531,1.344,1.344,1.344h57.219
		c0.813,0,1.344-0.531,1.344-1.344v-11.563c0-0.797-0.531-1.328-1.344-1.328h-41.906c-0.531,0-0.813-0.266-0.813-0.797v-23.125
		c0-0.531,0.281-0.781,0.813-0.781h28.953c0.797,0,1.328-0.563,1.328-1.344v-11.563c0-0.813-0.531-1.344-1.328-1.344h-28.953
		c-0.531,0-0.813-0.266-0.813-0.813v-22.281c0-0.547,0.281-0.813,0.813-0.813h41.906c0.813,0,1.344-0.547,1.344-1.344V422
		C249.813,421.203,249.281,420.656,248.469,420.656z" style="fill: rgb(0, 0, 0);"></path>
	<path class="st0" d="M323.531,420.656h-32.656c-0.797,0-1.344,0.547-1.344,1.344v88.656c0,0.813,0.547,1.344,1.344,1.344h32.656
		c15.703,0,26.188-7,30.484-20.281c1.469-4.563,2.281-9.547,2.281-25.375c0-15.859-0.813-20.844-2.281-25.391
		C349.719,427.656,339.234,420.656,323.531,420.656z M338.688,486.219c-2.672,8.188-8.844,11.547-18.938,11.547h-13.547
		c-0.547,0-0.813-0.266-0.813-0.797v-61.25c0-0.547,0.266-0.813,0.813-0.813h13.547c10.094,0,16.266,3.344,18.938,11.547
		c0.938,2.547,1.625,6.578,1.625,19.891C340.313,479.5,339.625,483.656,338.688,486.219z" style="fill: rgb(0, 0, 0);"></path>
</g>
</svg>
