<svg xmlns="http://www.w3.org/2000/svg" xmlns:xlink="http://www.w3.org/1999/xlink" width="400" zoomAndPan="magnify" viewBox="0 0 300 90.749999" height="121" preserveAspectRatio="xMidYMid meet" version="1.0"><defs><g/></defs><g fill="#000000" fill-opacity="1"><g transform="translate(19.145637, 57.496432)"><g><path d="M 42.640625 -25.976562 L 46.503906 -25.976562 C 56.878906 -25.976562 64.074219 -31.65625 64.074219 -39.835938 C 64.074219 -46.273438 59 -50.96875 52.183594 -50.96875 C 45.441406 -50.96875 40.746094 -47.183594 37.488281 -39.003906 L 35.746094 -34.839844 L 28.476562 -34.839844 C 25.21875 -34.839844 22.644531 -32.492188 22.644531 -29.613281 C 22.644531 -27.339844 24.085938 -26.054688 26.734375 -25.976562 L 32.1875 -25.976562 L 21.128906 1.210938 L 8.105469 1.210938 C 4.242188 1.210938 1.058594 1.816406 -1.589844 2.953125 C -6.4375 5 -9.617188 10.074219 -9.617188 15.675781 C -9.617188 23.628906 -3.257812 29.386719 5.378906 29.386719 C 11.132812 29.386719 16.738281 26.886719 20.828125 22.492188 C 23.328125 19.84375 24.386719 18.023438 27.492188 11.132812 L 27.945312 10.074219 L 56.421875 10.074219 C 59.679688 10.074219 62.253906 7.800781 62.253906 4.847656 C 62.253906 2.574219 60.816406 1.289062 58.164062 1.210938 L 31.507812 1.210938 Z M 46.199219 -34.839844 L 47.257812 -37.414062 C 48.773438 -41.050781 50.0625 -42.5625 51.878906 -42.5625 C 53.46875 -42.5625 54.605469 -41.277344 54.605469 -39.6875 C 54.605469 -38.398438 53.773438 -36.882812 52.710938 -36.203125 C 51.5 -35.445312 49.457031 -34.839844 47.941406 -34.839844 Z M 17.496094 10.074219 C 14.84375 16.359375 10.527344 20.222656 5.984375 20.222656 C 2.953125 20.222656 0.53125 18.023438 0.53125 15.222656 C 0.53125 13.027344 1.894531 11.285156 4.089844 10.527344 C 5.148438 10.222656 5.90625 10.074219 7.800781 10.074219 Z M 17.496094 10.074219 "/></g></g></g><g fill="#000000" fill-opacity="1"><g transform="translate(76.169441, 57.496432)"><g><path d="M 27.566406 -8.105469 L 32.871094 -21.207031 C 33.703125 -23.175781 33.855469 -23.78125 33.855469 -24.765625 C 33.855469 -26.734375 32.1875 -28.25 30.066406 -28.25 C 27.339844 -28.25 25.75 -26.886719 24.234375 -23.097656 L 19.539062 -11.511719 C 19.011719 -10.222656 17.648438 -8.9375 16.132812 -8.332031 C 15.675781 -8.105469 14.921875 -8.027344 13.480469 -8.027344 C 12.269531 -8.027344 11.359375 -8.710938 11.359375 -9.695312 C 11.359375 -9.921875 11.511719 -10.453125 11.738281 -11.132812 L 12.117188 -12.269531 L 16.054688 -21.738281 L 16.433594 -22.722656 C 16.8125 -23.628906 17.039062 -24.539062 17.039062 -25.296875 C 17.039062 -27.265625 15.375 -28.78125 13.253906 -28.78125 C 10.601562 -28.78125 9.011719 -27.339844 7.496094 -23.628906 L 2.421875 -11.285156 C 1.816406 -9.695312 1.4375 -8.40625 1.4375 -7.121094 C 1.4375 -4.921875 2.800781 -2.347656 4.542969 -1.210938 C 5.453125 -0.679688 7.574219 0 8.484375 0 L 14.542969 0 C 16.433594 0 18.175781 -0.832031 19.539062 -2.421875 C 20.070312 -1.058594 21.660156 0 23.175781 0 L 31.203125 0 C 34.15625 0 36.503906 -2.121094 36.503906 -4.769531 C 36.503906 -6.890625 35.21875 -8.027344 32.71875 -8.105469 Z M 27.566406 -8.105469 "/></g></g></g><g fill="#000000" fill-opacity="1"><g transform="translate(114.9426, 57.496432)"><g><path d="M 22.191406 0 L 23.023438 0 C 25.976562 0 28.402344 -2.121094 28.402344 -4.769531 C 28.402344 -6.890625 27.039062 -8.027344 24.613281 -8.105469 L 16.738281 -8.105469 C 14.996094 -8.105469 12.800781 -8.40625 11.890625 -8.710938 C 10.527344 -9.316406 9.695312 -10.90625 9.695312 -12.949219 C 9.695312 -17.117188 12.875 -21.054688 16.132812 -21.054688 C 17.570312 -21.054688 18.632812 -19.996094 18.554688 -18.554688 L 18.554688 -16.890625 C 18.480469 -15.148438 19.917969 -13.785156 21.886719 -13.785156 C 24.765625 -13.785156 26.8125 -16.359375 26.8125 -19.917969 C 26.8125 -25.21875 22.871094 -28.78125 17.039062 -28.78125 C 8.40625 -28.78125 0.984375 -20.902344 0.984375 -11.738281 C 0.984375 -4.769531 5.300781 0 11.4375 0 Z M 22.191406 0 "/></g></g></g><g fill="#000000" fill-opacity="1"><g transform="translate(143.871012, 57.496432)"><g><path d="M 22.191406 0 L 23.023438 0 C 25.976562 0 28.402344 -2.121094 28.402344 -4.769531 C 28.402344 -6.890625 27.039062 -8.027344 24.613281 -8.105469 L 16.738281 -8.105469 C 14.996094 -8.105469 12.800781 -8.40625 11.890625 -8.710938 C 10.527344 -9.316406 9.695312 -10.90625 9.695312 -12.949219 C 9.695312 -17.117188 12.875 -21.054688 16.132812 -21.054688 C 17.570312 -21.054688 18.632812 -19.996094 18.554688 -18.554688 L 18.554688 -16.890625 C 18.480469 -15.148438 19.917969 -13.785156 21.886719 -13.785156 C 24.765625 -13.785156 26.8125 -16.359375 26.8125 -19.917969 C 26.8125 -25.21875 22.871094 -28.78125 17.039062 -28.78125 C 8.40625 -28.78125 0.984375 -20.902344 0.984375 -11.738281 C 0.984375 -4.769531 5.300781 0 11.4375 0 Z M 22.191406 0 "/></g></g></g><g fill="#000000" fill-opacity="1"><g transform="translate(172.799424, 57.496432)"><g><path d="M 11.285156 -8.105469 L 16.585938 -21.128906 L 16.964844 -22.191406 C 17.34375 -23.023438 17.570312 -23.933594 17.570312 -24.691406 C 17.570312 -26.734375 15.90625 -28.25 13.785156 -28.25 C 11.359375 -28.25 9.390625 -26.8125 8.253906 -24.085938 L 7.875 -23.097656 L 1.742188 -8.105469 C 1.136719 -6.511719 0.984375 -5.984375 0.984375 -5 C 0.984375 -1.816406 3.558594 0 8.027344 0 L 14.769531 0 C 17.722656 0 20.144531 -2.121094 20.144531 -4.769531 C 20.144531 -6.890625 18.78125 -8.027344 16.359375 -8.105469 Z M 16.207031 -29.839844 C 19.085938 -29.839844 21.359375 -32.113281 21.359375 -34.914062 C 21.359375 -37.867188 19.085938 -40.140625 16.132812 -40.140625 C 13.328125 -40.140625 11.058594 -37.792969 11.058594 -34.988281 C 11.058594 -32.1875 13.40625 -29.839844 16.207031 -29.839844 Z M 16.207031 -29.839844 "/></g></g></g><g fill="#000000" fill-opacity="1"><g transform="translate(193.397662, 57.496432)"><g><path d="M 13.707031 0 C 18.328125 0 20.523438 -0.378906 22.722656 -1.816406 C 27.1875 -4.695312 30.371094 -10.90625 30.371094 -16.738281 C 30.371094 -23.78125 25.21875 -28.78125 17.875 -28.78125 C 8.859375 -28.78125 0.984375 -20.75 0.984375 -11.585938 C 0.984375 -7.421875 2.878906 -3.558594 5.984375 -1.4375 C 7.648438 -0.304688 9.316406 0 13.707031 0 Z M 21.585938 -16.359375 C 21.585938 -13.632812 20.070312 -10.375 18.175781 -8.9375 C 17.269531 -8.179688 16.433594 -8.027344 14.617188 -8.027344 C 11.4375 -8.027344 9.921875 -9.316406 9.921875 -12.195312 C 9.921875 -16.660156 13.480469 -20.902344 17.269531 -20.902344 C 19.765625 -20.902344 21.585938 -19.011719 21.585938 -16.359375 Z M 21.585938 -16.359375 "/></g></g></g><g fill="#000000" fill-opacity="1"><g transform="translate(224.749391, 57.496432)"><g><path d="M 11.285156 -8.105469 L 25.597656 -43.472656 L 26.054688 -44.457031 C 26.355469 -45.289062 26.582031 -46.273438 26.582031 -47.03125 C 26.582031 -48.925781 24.917969 -50.515625 22.871094 -50.515625 C 20.449219 -50.515625 18.554688 -49.078125 17.417969 -46.351562 L 17.039062 -45.367188 L 2.121094 -8.632812 C 1.4375 -7.042969 0.984375 -5.527344 0.984375 -4.542969 C 0.984375 -1.816406 3.40625 0 6.96875 0 L 14.464844 0 C 17.417969 0 19.84375 -2.121094 19.84375 -4.769531 C 19.84375 -6.890625 18.480469 -8.027344 16.054688 -8.105469 Z M 11.285156 -8.105469 "/></g></g></g><g fill="#000000" fill-opacity="1"><g transform="translate(245.499098, 57.496432)"><g><path d="M 26.203125 -8.105469 L 31.582031 -21.207031 C 32.414062 -23.25 32.566406 -23.78125 32.566406 -24.839844 C 32.566406 -26.734375 30.824219 -28.25 28.703125 -28.25 C 26.582031 -28.25 25.21875 -27.492188 23.933594 -25.523438 C 22.417969 -27.71875 20.144531 -28.78125 17.039062 -28.78125 C 8.785156 -28.78125 0.984375 -19.996094 0.984375 -10.601562 C 0.984375 -4.316406 4.621094 0 9.847656 0 L 14.3125 0 C 16.207031 0 17.417969 -0.453125 19.011719 -1.894531 L 19.691406 -2.5 C 20.449219 -0.757812 21.738281 0 23.933594 0 L 29.613281 0 C 32.566406 0 34.988281 -2.121094 34.988281 -4.769531 C 34.988281 -6.890625 33.625 -8.027344 31.203125 -8.105469 Z M 17.570312 -9.921875 C 17.191406 -9.011719 15.375 -7.875 14.238281 -7.875 L 12.800781 -7.875 C 10.90625 -7.875 9.695312 -9.238281 9.695312 -11.585938 C 9.695312 -16.132812 13.859375 -21.359375 17.570312 -21.359375 C 19.386719 -21.359375 20.902344 -20.144531 20.902344 -18.707031 C 20.902344 -18.253906 20.828125 -17.796875 20.601562 -17.34375 L 20.375 -16.738281 Z M 17.570312 -9.921875 "/></g></g></g><g fill="#121212" fill-opacity="1"><g transform="translate(138.682454, 76.7091)"><g><path d="M 3.453125 -16.6875 L 12.015625 -5.328125 L 12.046875 -5.328125 L 12.046875 -16.265625 L 15.21875 -16.265625 L 15.21875 0.328125 L 12.9375 0.328125 L 4.375 -11.046875 L 4.328125 -11.046875 L 4.328125 0 L 1.171875 0 L 1.171875 -16.6875 Z M 3.453125 -16.6875 "/></g></g></g><g fill="#121212" fill-opacity="1"><g transform="translate(157.193472, 76.7091)"><g><path d="M 0.390625 -8.15625 C 0.390625 -9.789062 0.726562 -11.253906 1.40625 -12.546875 C 2.09375 -13.835938 3.050781 -14.847656 4.28125 -15.578125 C 5.507812 -16.316406 6.894531 -16.6875 8.4375 -16.6875 C 10 -16.6875 11.394531 -16.304688 12.625 -15.546875 C 13.863281 -14.796875 14.8125 -13.769531 15.46875 -12.46875 C 16.132812 -11.164062 16.46875 -9.726562 16.46875 -8.15625 C 16.46875 -6.5 16.125 -5.015625 15.4375 -3.703125 C 14.757812 -2.398438 13.8125 -1.382812 12.59375 -0.65625 C 11.382812 0.0703125 10 0.4375 8.4375 0.4375 C 6.894531 0.4375 5.515625 0.0820312 4.296875 -0.625 C 3.085938 -1.34375 2.132812 -2.363281 1.4375 -3.6875 C 0.738281 -5.007812 0.390625 -6.5 0.390625 -8.15625 Z M 8.40625 -13.5625 C 7.050781 -13.5625 5.921875 -13.039062 5.015625 -12 C 4.117188 -10.96875 3.671875 -9.726562 3.671875 -8.28125 C 3.671875 -6.65625 4.097656 -5.316406 4.953125 -4.265625 C 5.804688 -3.222656 6.96875 -2.703125 8.4375 -2.703125 C 9.894531 -2.703125 11.050781 -3.222656 11.90625 -4.265625 C 12.769531 -5.316406 13.203125 -6.65625 13.203125 -8.28125 C 13.203125 -9.75 12.75 -10.992188 11.84375 -12.015625 C 10.9375 -13.046875 9.789062 -13.5625 8.40625 -13.5625 Z M 8.40625 -13.5625 "/></g></g></g><g fill="#121212" fill-opacity="1"><g transform="translate(176.200096, 76.7091)"><g><path d="M 3.453125 -16.6875 L 12.015625 -5.328125 L 12.046875 -5.328125 L 12.046875 -16.265625 L 15.21875 -16.265625 L 15.21875 0.328125 L 12.9375 0.328125 L 4.375 -11.046875 L 4.328125 -11.046875 L 4.328125 0 L 1.171875 0 L 1.171875 -16.6875 Z M 3.453125 -16.6875 "/></g></g></g><g fill="#121212" fill-opacity="1"><g transform="translate(194.711116, 76.7091)"><g><path d="M 8.609375 -16.6875 L 14.765625 0 L 11.390625 0 L 10.140625 -3.421875 L 4.484375 -3.421875 L 3.140625 0 L -0.1875 0 L 6.140625 -16.6875 Z M 5.390625 -6.015625 L 9.25 -6.015625 L 7.21875 -11.921875 L 7.1875 -11.921875 Z M 5.390625 -6.015625 "/></g></g></g><g fill="#121212" fill-opacity="1"><g transform="translate(211.433615, 76.7091)"><g><path d="M 5.21875 -16.6875 L 9.234375 -5.96875 L 13.0625 -16.6875 L 15.359375 -16.6875 L 17.796875 0 L 14.59375 0 L 13.296875 -10.09375 L 13.265625 -10.09375 L 9.578125 0.21875 L 8.46875 0.21875 L 4.921875 -10.09375 L 4.875 -10.09375 L 3.421875 0 L 0.234375 0 L 2.96875 -16.6875 Z M 5.21875 -16.6875 "/></g></g></g><g fill="#121212" fill-opacity="1"><g transform="translate(231.603851, 76.7091)"><g><path d="M 4.328125 -16.265625 L 4.328125 0 L 1.171875 0 L 1.171875 -16.265625 Z M 4.328125 -16.265625 "/></g></g></g></svg>