<!--?xml version="1.0" encoding="utf-8"?-->
<!-- Generator: Adobe Illustrator 18.0.0, SVG Export Plug-In . SVG Version: 6.00 Build 0)  -->

<svg version="1.1" id="_x32_" xmlns="http://www.w3.org/2000/svg" xmlns:xlink="http://www.w3.org/1999/xlink" x="0px" y="0px" viewBox="0 0 512 512" style="width: 16px; height: 16px; opacity: 1;" xml:space="preserve">
<style type="text/css">
	.st0{fill:#4B4B4B;}
</style>
<g>
	<polygon class="st0" points="25.348,326.965 25.348,454.024 25.346,454.805 25.348,454.805 25.348,454.965 61.348,454.965 
		61.348,326.965 	" style="fill: rgb(0, 0, 0);"></polygon>
	<path class="st0" d="M80,326.965v128h432v-128H80z M333.377,422.965H112v-64h221.379v63.766L333.377,422.965z" style="fill: rgb(0, 0, 0);"></path>
	<path class="st0" d="M81.768,304.902c0-3.11-1.279-5.633-2.858-5.633h-0.004c-19.211,0-34.836-15.625-34.836-34.836
		s15.627-34.84,34.84-34.84v-0.031c1.537-0.09,2.776-2.547,2.776-5.598s-1.238-5.508-2.776-5.598v-0.031h-0.078h-0.006H78.82h-2.412
		c-28.24,0-51.215-22.973-51.215-51.215c0-28.238,22.975-51.211,51.215-51.211v-0.176c1.361-0.43,2.418-2.652,2.418-5.453
		c0-2.805-1.056-5.023-2.418-5.457v-0.172h-0.436l-0.004-0.004l-0.006,0.004h-3.346C39.037,104.652,0,131.942,0,167.121
		C0,191,18.408,211.184,40.965,221.715c2.945,1.426,5.914,2.656,8.856,3.695c-15.035,8.066-26.928,22.316-26.928,39.024
		c0,25.961,29.295,46.098,54.5,46.098h1.516l0,0C80.488,310.531,81.768,308.012,81.768,304.902z" style="fill: rgb(0, 0, 0);"></path>
	<path class="st0" d="M122.293,251.656h-0.004c-1.578,0-2.858,2.52-2.858,5.629c0,3.109,1.279,5.629,2.858,5.629h0.002h1.516
		c25.203,0,54.5-20.137,54.5-46.098c0-13.965-8.358-26.16-19.864-34.516c-0.554-0.414-1.076-0.848-1.65-1.246
		c-0.074-0.051-0.154-0.09-0.228-0.141c-1.654-1.137-3.371-2.226-5.18-3.234c26.39-8.972,49.814-31.23,49.814-58.172
		c0-35.18-39.037-62.473-72.617-62.473h-3.346h-0.006h-0.004h-0.435v0.176c-1.362,0.43-2.42,2.652-2.42,5.453
		c0,2.73,1.012,4.879,2.32,5.391c0.035,0.02,0.064,0.062,0.1,0.082v0.156c28.24,0,51.215,22.977,51.215,51.215
		c0,28.238-22.975,51.215-51.215,51.215h-2.412c0,0-0.004-0.004-0.008-0.004l-0.006,0.004h-0.076v0.031
		c-1.537,0.09-2.776,2.543-2.776,5.598c0,3.051,1.238,5.504,2.776,5.598v0.031c19.213,0,34.84,15.629,34.84,34.836
		C157.129,236.027,141.504,251.656,122.293,251.656z" style="fill: rgb(0, 0, 0);"></path>
</g>
</svg>
